<svg width="23" height="23" viewBox="0 0 23 23" fill="none" xmlns="http://www.w3.org/2000/svg">
<g id="ArrowRight">
<path id="Vector" d="M15.9532 7.42465V13.7886C15.9532 13.9879 15.8741 14.179 15.7332 14.3199C15.5923 14.4608 15.4012 14.5399 15.2019 14.5399C15.0027 14.5399 14.8116 14.4608 14.6707 14.3199C14.5298 14.179 14.4506 13.9879 14.4506 13.7886L14.4515 9.23661L7.95495 15.7332C7.8143 15.8738 7.62353 15.9528 7.42462 15.9528C7.22571 15.9528 7.03494 15.8738 6.89429 15.7332C6.75364 15.5925 6.67462 15.4017 6.67462 15.2028C6.67462 15.0039 6.75364 14.8131 6.89429 14.6725L13.3908 8.17595L8.83839 8.17463C8.63913 8.17463 8.44804 8.09547 8.30714 7.95458C8.16625 7.81368 8.08709 7.62258 8.08709 7.42333C8.08709 7.22407 8.16625 7.03297 8.30714 6.89208C8.44804 6.75118 8.63913 6.67203 8.83839 6.67203H15.2024C15.3011 6.67191 15.399 6.69131 15.4902 6.72912C15.5815 6.76692 15.6644 6.82239 15.7342 6.89232C15.8039 6.96225 15.8592 7.04528 15.8968 7.13663C15.9344 7.22799 15.9536 7.32587 15.9532 7.42465Z" fill="white"/>
</g>
</svg>
