<svg width="26" height="26" viewBox="0 0 26 26" fill="none" xmlns="http://www.w3.org/2000/svg">
<g id="CaretRight">
<path id="Vector" d="M18.7372 13.8625L10.6122 21.9875C10.3833 22.2164 10.0727 22.345 9.74894 22.345C9.42515 22.345 9.11462 22.2164 8.88566 21.9875C8.6567 21.7585 8.52808 21.448 8.52808 21.1242C8.52808 20.8004 8.6567 20.4899 8.88566 20.2609L16.1484 13.0002L8.88769 5.73747C8.77432 5.6241 8.68439 5.48951 8.62304 5.34139C8.56169 5.19327 8.53011 5.03451 8.53011 4.87418C8.53011 4.71386 8.56169 4.5551 8.62304 4.40698C8.68439 4.25886 8.77432 4.12427 8.88769 4.0109C9.00106 3.89754 9.13565 3.80761 9.28377 3.74625C9.43189 3.6849 9.59065 3.65332 9.75097 3.65332C9.9113 3.65332 10.0701 3.6849 10.2182 3.74625C10.3663 3.80761 10.5009 3.89754 10.6143 4.0109L18.7393 12.1359C18.8527 12.2493 18.9427 12.3839 19.0041 12.5321C19.0654 12.6803 19.0969 12.8392 19.0967 12.9996C19.0965 13.16 19.0647 13.3188 19.003 13.4669C18.9413 13.6149 18.851 13.7494 18.7372 13.8625Z" fill="black"/>
</g>
</svg>
