<svg width="14" height="14" viewBox="0 0 14 14" fill="none" xmlns="http://www.w3.org/2000/svg">
<path d="M11.8393 5.7143L7.46427 10.0893C7.40331 10.1505 7.33086 10.199 7.25109 10.2321C7.17132 10.2653 7.0858 10.2823 6.99943 10.2823C6.91306 10.2823 6.82754 10.2653 6.74777 10.2321C6.668 10.199 6.59555 10.1505 6.53459 10.0893L2.15959 5.7143C2.0363 5.59102 1.96704 5.42381 1.96704 5.24946C1.96704 5.07511 2.0363 4.9079 2.15959 4.78461C2.28287 4.66133 2.45008 4.59207 2.62443 4.59207C2.79878 4.59207 2.96599 4.66133 3.08927 4.78461L6.99998 8.69532L10.9107 4.78407C11.034 4.66078 11.2012 4.59152 11.3755 4.59152C11.5499 4.59152 11.7171 4.66078 11.8404 4.78407C11.9637 4.90735 12.0329 5.07456 12.0329 5.24891C12.0329 5.42326 11.9637 5.59047 11.8404 5.71375L11.8393 5.7143Z" fill="white"/>
</svg>
