<svg width="26" height="26" viewBox="0 0 26 26" fill="none" xmlns="http://www.w3.org/2000/svg">
<g id="CaretLeft">
<path id="Vector" d="M17.1122 20.2629C17.3412 20.4918 17.4698 20.8023 17.4698 21.1261C17.4698 21.4499 17.3412 21.7605 17.1122 21.9894C16.8833 22.2184 16.5728 22.347 16.249 22.347C15.9252 22.347 15.6146 22.2184 15.3857 21.9894L7.26068 13.8644C7.14706 13.7512 7.05691 13.6167 6.9954 13.4685C6.93389 13.3204 6.90222 13.1615 6.90222 13.0011C6.90222 12.8407 6.93389 12.6819 6.9954 12.5338C7.05691 12.3856 7.14706 12.2511 7.26068 12.1379L15.3857 4.01286C15.6146 3.7839 15.9252 3.65527 16.249 3.65527C16.5728 3.65527 16.8833 3.7839 17.1122 4.01286C17.3412 4.24181 17.4698 4.55234 17.4698 4.87614C17.4698 5.19993 17.3412 5.51046 17.1122 5.73942L9.85154 13.0001L17.1122 20.2629Z" fill="#ADADAD"/>
</g>
</svg>
