<svg width="197" height="29" viewBox="0 0 197 29" fill="none" xmlns="http://www.w3.org/2000/svg">
<g id="Group 83">
<g id="54ffdb7a-6aab-40b2-b2b1-1d60d95a1078">
<g id="Group">
<path id="Compound Path" d="M16.279 0.230864L0 13.4263L1.40402 15.2292L2.95982 13.9633V27.8492C2.95982 28.1544 3.07976 28.4471 3.29325 28.6629C3.50674 28.8788 3.79629 29 4.09821 29H29.9018C30.2037 29 30.4933 28.8788 30.7068 28.6629C30.9202 28.4471 31.0402 28.1544 31.0402 27.8492V13.9633L32.596 15.2292L34 13.4263L17.721 0.230864C17.5099 0.080633 17.2581 0 17 0C16.7419 0 16.4901 0.080633 16.279 0.230864ZM22.3125 16.0347C22.3164 17.2655 21.9049 18.4608 21.146 19.4232C20.3871 20.3856 19.3261 21.0576 18.1384 21.3282V24.0134H15.8616V21.3282C14.6739 21.0576 13.6129 20.3856 12.854 19.4232C12.0951 18.4608 11.6836 17.2655 11.6875 16.0347C11.6875 13.3496 15.4442 9.32191 16.1652 8.55473C16.3948 8.34716 16.692 8.2324 17 8.2324C17.308 8.2324 17.6052 8.34716 17.8348 8.55473C18.5558 9.32191 22.3125 13.3496 22.3125 16.0347Z" fill="white"/>
</g>
</g>
<g id="d1f9ac67-8aab-40b8-a4fb-d6ab632f8dcc">
<path id="Vector" d="M42 19.8113H51.1272V17.5597H45.0379V14.7044H50.422V12.5157H45.0379V9.67296H51.0187V7.49686H42V19.8113ZM57.2979 19.9874C60.2816 19.9874 61.7191 18.3648 61.9497 16.5157L59.0474 16.4151C58.9118 17.6101 58.2473 18.1384 57.3522 18.1384C56.0773 18.1384 55.4806 17.1572 55.4806 15.044C55.4806 13.044 56.0231 12.1006 57.2979 12.1006C58.3015 12.1006 58.8576 12.6918 58.9661 13.6855L61.8954 13.5597C61.6513 11.7484 60.1595 10.2013 57.2979 10.2013C54.1109 10.2013 52.3749 11.9874 52.3749 15.1321C52.3749 18.1006 53.9888 19.9874 57.2979 19.9874ZM70.2225 15.0943C70.2225 17.1824 69.5444 18.1509 68.1068 18.1509C66.8049 18.1509 66.0319 17.0818 66.0319 15.0943C66.0319 13.1069 66.71 12.1132 68.1611 12.1132C69.463 12.1132 70.2225 13.1195 70.2225 15.0943ZM73.2468 15.0692C73.2468 12.2013 71.7686 10.2013 68.134 10.2013C64.6621 10.2013 62.994 12.2264 62.994 15.0692C62.994 18.0377 64.6892 19.9874 68.0797 19.9874C71.5516 19.9874 73.2468 18.0503 73.2468 15.0692ZM83.9744 19.8113H86.958V7.49686H83.9744V12.327H78.4682V7.49686H75.3761V19.8113H78.4682V14.6541H83.9744V19.8113ZM99.2994 18.0503H98.5942C98.0381 18.0503 97.8754 17.7987 97.8754 17.3585V13.6478C97.8754 11.3962 96.587 10.2013 93.7119 10.2013C90.891 10.2013 89.5212 11.3711 89.3449 13.0692L92.0844 13.2201C92.0844 12.3396 92.5998 11.8491 93.5491 11.8491C94.4578 11.8491 94.9867 12.2516 94.9867 13.3333V14.1258H93.9831C90.6333 14.1258 88.9516 14.9686 88.9516 17.1698C88.9516 18.5912 89.9688 19.9874 92.2336 19.9874C93.6169 19.9874 94.7561 19.4465 95.2308 18.239C95.2579 19.3836 96.2615 19.9874 97.6991 19.9874C98.3501 19.9874 98.6484 19.9748 99.2994 19.912V18.0503ZM93.2643 18.2264C92.2879 18.2264 91.8403 17.6101 91.8403 16.9182C91.8403 15.8616 92.7218 15.5346 93.6983 15.5346H94.9867V16.239C94.9867 17.522 94.2679 18.2264 93.2643 18.2264ZM106.514 19.8113L110.041 10.3774H107.125L105.511 15.4088L104.819 17.6855L104.114 15.4088L102.378 10.3774H99.3943L103.043 19.8113H106.514ZM115.533 19.9874C118.666 19.9874 119.656 18.6164 120.036 17.0818L117.215 16.9182C117.052 17.8365 116.55 18.2264 115.628 18.2264C114.204 18.2264 113.743 17.044 113.743 15.8491V15.5975H120.185C120.185 15.5975 120.226 15.195 120.226 14.7799C120.226 12.1509 119.059 10.2013 115.547 10.2013C112.834 10.2013 110.597 11.3585 110.597 15.044C110.597 18.3648 112.36 19.9874 115.533 19.9874ZM115.492 11.8491C116.523 11.8491 117.161 12.3396 117.161 13.9874V14.0126H113.743C113.797 12.3396 114.53 11.8491 115.492 11.8491ZM128.675 19.8113H131.685V13.5597C131.685 11.7987 130.967 10.2013 128.403 10.2013C126.803 10.2013 125.664 10.9182 125.162 12.3145C125.121 11.5723 125.027 10.6415 124.999 10.3774H122.151C122.178 10.9057 122.219 11.5849 122.219 12.5535V19.8113H125.189V14.805C125.189 13.2579 125.881 12.2893 127.088 12.2893C128.268 12.2893 128.675 12.956 128.675 14.2767V19.8113ZM142.603 15.2704H144.461L147.39 19.8113H150.808L147.431 14.9686C149.058 14.4906 150.13 13.3711 150.13 11.2704C150.13 8.9434 148.475 7.49686 145.098 7.49686H139.565V19.8113H142.603V15.2704ZM147.024 11.3459C147.024 12.3774 146.36 13.0692 144.813 13.0692H142.603V9.68553H144.773C146.237 9.68553 147.024 10.2264 147.024 11.3459ZM156.992 19.9874C160.125 19.9874 161.115 18.6164 161.495 17.0818L158.687 16.9182C158.511 17.8365 158.023 18.2264 157.087 18.2264C155.663 18.2264 155.215 17.044 155.215 15.8491V15.5975H161.644C161.644 15.5975 161.685 15.195 161.685 14.7799C161.685 12.1509 160.532 10.2013 157.019 10.2013C154.307 10.2013 152.056 11.3585 152.056 15.044C152.056 18.3648 153.832 19.9874 156.992 19.9874ZM156.965 11.8491C157.982 11.8491 158.633 12.3396 158.633 13.9874V14.0126H155.215C155.27 12.3396 155.989 11.8491 156.965 11.8491ZM173.267 18.0503H172.561C172.019 18.0503 171.842 17.7987 171.842 17.3585V13.6478C171.842 11.3962 170.554 10.2013 167.693 10.2013C164.858 10.2013 163.488 11.3711 163.326 13.0692L166.052 13.2201C166.052 12.3396 166.567 11.8491 167.516 11.8491C168.425 11.8491 168.954 12.2516 168.954 13.3333V14.1258H167.95C164.614 14.1258 162.919 14.9686 162.919 17.1698C162.919 18.5912 163.949 19.9874 166.201 19.9874C167.598 19.9874 168.737 19.4465 169.211 18.239C169.225 19.3836 170.229 19.9874 171.68 19.9874C172.317 19.9874 172.629 19.9748 173.267 19.912V18.0503ZM167.231 18.2264C166.269 18.2264 165.807 17.6101 165.807 16.9182C165.807 15.8616 166.703 15.5346 167.665 15.5346H168.954V16.239C168.954 17.522 168.235 18.2264 167.231 18.2264ZM174.731 19.8113H177.688V6H174.731V19.8113ZM179.247 12.3648H180.604V17.3082C180.604 19.0566 181.566 19.9874 183.289 19.9874C184.36 19.9874 184.943 19.912 185.554 19.8868V17.6855H184.604C183.831 17.6855 183.574 17.4717 183.574 16.805V12.3648H185.513V10.3774H183.574V7.48428H180.604V10.3774H179.247V12.3648ZM188.578 24C190.572 24 191.765 23.8491 192.633 21.6226L197 10.3774H194.057L192.66 14.7044C192.24 15.9874 191.738 17.3082 191.738 17.3082C191.738 17.3082 191.29 15.9748 190.856 14.7799L189.243 10.3774H186.313L190.287 20.0377L189.88 21.0818C189.677 21.6478 189.31 21.8365 188.578 21.8365H187.086V24H188.578Z" fill="white"/>
</g>
</g>
</svg>
