<svg width="416" height="18" viewBox="0 0 416 18" fill="none" xmlns="http://www.w3.org/2000/svg">
<path d="M5.726 15V12.592H0.602V11.458L5.698 4.57H7.014V11.458H8.372V12.592H7.014V15H5.726ZM1.638 11.948L1.442 11.458H5.726V5.718L6.132 5.83L1.638 11.948ZM10.4677 15V13.32H11.8257V15H10.4677ZM15.1631 15L18.7611 10.31L19.0131 10.338C18.8731 10.5247 18.7191 10.674 18.5511 10.786C18.3831 10.8887 18.1964 10.9633 17.9911 11.01C17.7951 11.0567 17.5804 11.08 17.3471 11.08C16.7311 11.08 16.1758 10.94 15.6811 10.66C15.1958 10.3707 14.8084 9.97867 14.5191 9.484C14.2391 8.98 14.0991 8.406 14.0991 7.762C14.0991 7.118 14.2484 6.544 14.5471 6.04C14.8458 5.536 15.2564 5.13933 15.7791 4.85C16.3018 4.55133 16.8898 4.402 17.5431 4.402C18.2151 4.402 18.8078 4.55133 19.3211 4.85C19.8438 5.13933 20.2544 5.54533 20.5531 6.068C20.8518 6.58133 21.0011 7.174 21.0011 7.846C21.0011 8.21 20.9591 8.56933 20.8751 8.924C20.7911 9.27867 20.6558 9.638 20.4691 10.002C20.2918 10.366 20.0538 10.744 19.7551 11.136L16.8151 15H15.1631ZM17.5431 9.876C17.9444 9.876 18.2991 9.78733 18.6071 9.61C18.9244 9.42333 19.1718 9.17133 19.3491 8.854C19.5264 8.52733 19.6151 8.16333 19.6151 7.762C19.6151 7.342 19.5218 6.97333 19.3351 6.656C19.1578 6.33867 18.9151 6.08667 18.6071 5.9C18.2991 5.71333 17.9444 5.62 17.5431 5.62C17.1511 5.62 16.8011 5.71333 16.4931 5.9C16.1851 6.08667 15.9378 6.33867 15.7511 6.656C15.5738 6.97333 15.4851 7.342 15.4851 7.762C15.4851 8.16333 15.5738 8.52733 15.7511 8.854C15.9284 9.17133 16.1711 9.42333 16.4791 9.61C16.7964 9.78733 17.1511 9.876 17.5431 9.876Z" fill="#313131"/>
<path d="M29.8833 15.6667L30.9666 10.9833L27.3333 7.83333L32.1333 7.41667L34 3L35.8666 7.41667L40.6666 7.83333L37.0333 10.9833L38.1166 15.6667L34 13.1833L29.8833 15.6667Z" fill="#E7AA3D"/>
<path d="M45.8833 15.6667L46.9666 10.9833L43.3333 7.83333L48.1333 7.41667L50 3L51.8666 7.41667L56.6666 7.83333L53.0333 10.9833L54.1166 15.6667L50 13.1833L45.8833 15.6667Z" fill="#E7AA3D"/>
<path d="M61.8833 15.6667L62.9666 10.9833L59.3333 7.83333L64.1333 7.41667L66 3L67.8666 7.41667L72.6666 7.83333L69.0333 10.9833L70.1166 15.6667L66 13.1833L61.8833 15.6667Z" fill="#E7AA3D"/>
<path d="M77.8833 15.6667L78.9666 10.9833L75.3333 7.83333L80.1333 7.41667L82 3L83.8666 7.41667L88.6666 7.83333L85.0333 10.9833L86.1166 15.6667L82 13.1833L77.8833 15.6667Z" fill="#E7AA3D"/>
<path d="M93.8833 15.6667L94.9666 10.9833L91.3333 7.83333L96.1333 7.41667L98 3L99.8666 7.41667L104.667 7.83333L101.033 10.9833L102.117 15.6667L98 13.1833L93.8833 15.6667Z" fill="#E7AA3D"/>
</svg>
