<svg width="416" height="18" viewBox="0 0 416 18" fill="none" xmlns="http://www.w3.org/2000/svg">
<path d="M5.726 15V12.592H0.602V11.458L5.698 4.57H7.014V11.458H8.372V12.592H7.014V15H5.726ZM1.638 11.948L1.442 11.458H5.726V5.718L6.132 5.83L1.638 11.948ZM10.4677 15V13.32H11.8257V15H10.4677ZM17.5711 15.168C17.0298 15.168 16.5211 15.0747 16.0451 14.888C15.5691 14.692 15.1538 14.4167 14.7991 14.062C14.4538 13.698 14.2018 13.2733 14.0431 12.788L15.1631 12.312C15.3591 12.8253 15.6764 13.2267 16.1151 13.516C16.5631 13.796 17.0484 13.936 17.5711 13.936C18.0004 13.936 18.3784 13.8427 18.7051 13.656C19.0411 13.46 19.3024 13.194 19.4891 12.858C19.6758 12.5127 19.7691 12.13 19.7691 11.71C19.7691 11.2713 19.6711 10.884 19.4751 10.548C19.2884 10.212 19.0318 9.95067 18.7051 9.764C18.3784 9.568 18.0051 9.47 17.5851 9.47C17.1558 9.47 16.7638 9.568 16.4091 9.764C16.0544 9.96 15.7978 10.2073 15.6391 10.506L14.5331 10.268L15.3311 4.57H20.7351V5.76H15.8491L16.3811 5.228L15.7651 9.652L15.2891 9.372C15.5971 8.98 15.9564 8.7 16.3671 8.532C16.7871 8.35467 17.2398 8.266 17.7251 8.266C18.4064 8.266 19.0038 8.42 19.5171 8.728C20.0304 9.036 20.4318 9.44667 20.7211 9.96C21.0104 10.4733 21.1551 11.0567 21.1551 11.71C21.1551 12.3633 20.9964 12.9513 20.6791 13.474C20.3711 13.9967 19.9464 14.412 19.4051 14.72C18.8731 15.0187 18.2618 15.168 17.5711 15.168Z" fill="#313131"/>
<path d="M29.8834 15.6667L30.9667 10.9833L27.3334 7.83333L32.1334 7.41667L34 3L35.8667 7.41667L40.6667 7.83333L37.0334 10.9833L38.1167 15.6667L34 13.1833L29.8834 15.6667Z" fill="#E7AA3D"/>
<path d="M45.8834 15.6667L46.9667 10.9833L43.3334 7.83333L48.1334 7.41667L50 3L51.8667 7.41667L56.6667 7.83333L53.0334 10.9833L54.1167 15.6667L50 13.1833L45.8834 15.6667Z" fill="#E7AA3D"/>
<path d="M61.8834 15.6667L62.9667 10.9833L59.3334 7.83333L64.1334 7.41667L66 3L67.8667 7.41667L72.6667 7.83333L69.0334 10.9833L70.1167 15.6667L66 13.1833L61.8834 15.6667Z" fill="#E7AA3D"/>
<path d="M77.8834 15.6667L78.9667 10.9833L75.3334 7.83333L80.1334 7.41667L82 3L83.8667 7.41667L88.6667 7.83333L85.0334 10.9833L86.1167 15.6667L82 13.1833L77.8834 15.6667Z" fill="#E7AA3D"/>
<path d="M93.8834 15.6667L94.9667 10.9833L91.3334 7.83333L96.1334 7.41667L98 3L99.8667 7.41667L104.667 7.83333L101.033 10.9833L102.117 15.6667L98 13.1833L93.8834 15.6667Z" fill="#E2E2E2"/>
</svg>
