<svg width="24" height="24" viewBox="0 0 24 24" fill="none" xmlns="http://www.w3.org/2000/svg">
<g clip-path="url(#clip0_50_134)">
<path d="M22.5954 8.78813C22.597 9.50236 22.457 10.2098 22.1835 10.8696C21.9099 11.5294 21.5082 12.1283 21.0017 12.6319L12.6298 21.1275C12.56 21.1984 12.4769 21.2546 12.3851 21.2931C12.2934 21.3315 12.1949 21.3512 12.0954 21.3512C11.996 21.3512 11.8975 21.3315 11.8058 21.2931C11.714 21.2546 11.6309 21.1984 11.5611 21.1275L3.1892 12.6319C2.16853 11.6124 1.59463 10.2293 1.59375 8.78675C1.59287 7.34419 2.16509 5.96036 3.18451 4.93969C4.20394 3.91902 5.58707 3.34512 7.02963 3.34424C8.4722 3.34336 9.85603 3.91557 10.8767 4.935L12.0954 6.07406L13.3226 4.93125C14.0843 4.17336 15.0534 3.65813 16.1077 3.45059C17.162 3.24305 18.2541 3.35252 19.2462 3.76516C20.2383 4.17781 21.0859 4.87514 21.682 5.76911C22.2781 6.66309 22.5959 7.71363 22.5954 8.78813Z" fill="#27563A"/>
</g>
<defs>
<clipPath id="clip0_50_134">
<rect width="24" height="24" fill="white"/>
</clipPath>
</defs>
</svg>
