<svg width="24" height="24" viewBox="0 0 24 24" fill="none" xmlns="http://www.w3.org/2000/svg">
<g id="HeartStraight">
<path id="Vector" d="M20.9062 5.34377C19.8873 4.32738 18.5074 3.75582 17.0682 3.75406C15.629 3.7523 14.2477 4.3205 13.2262 5.33439L12 6.47345L10.7728 5.33064C9.75164 4.31233 8.36777 3.74139 6.92565 3.74341C5.48352 3.74544 4.10127 4.32026 3.08296 5.34142C2.06465 6.36259 1.49371 7.74645 1.49573 9.18858C1.49775 10.6307 2.07258 12.013 3.09374 13.0313L11.4703 21.5306C11.5401 21.6015 11.6233 21.6578 11.715 21.6962C11.8068 21.7346 11.9052 21.7544 12.0047 21.7544C12.1041 21.7544 12.2026 21.7346 12.2943 21.6962C12.3861 21.6578 12.4693 21.6015 12.5391 21.5306L20.9062 13.0313C21.9253 12.0116 22.4977 10.6291 22.4977 9.18752C22.4977 7.74596 21.9253 6.3634 20.9062 5.34377ZM19.8422 11.9775L12 19.9313L4.15312 11.97C3.41465 11.2316 2.99979 10.23 2.99979 9.18564C2.99979 8.1413 3.41465 7.13973 4.15312 6.40127C4.89158 5.6628 5.89315 5.24794 6.93749 5.24794C7.98184 5.24794 8.9834 5.6628 9.72187 6.40127L9.74062 6.42002L11.4891 8.04658C11.6278 8.17574 11.8104 8.24754 12 8.24754C12.1896 8.24754 12.3721 8.17574 12.5109 8.04658L14.2594 6.42002L14.2781 6.40127C15.0171 5.6633 16.0189 5.24911 17.0633 5.24982C18.1076 5.25052 19.1089 5.66606 19.8469 6.40502C20.5848 7.14398 20.999 8.14582 20.9983 9.19017C20.9976 10.2345 20.5821 11.2358 19.8431 11.9738L19.8422 11.9775Z" fill="#313131"/>
</g>
</svg>
