<svg width="24" height="24" viewBox="0 0 24 24" fill="none" xmlns="http://www.w3.org/2000/svg">
<g id="MagnifyingGlass">
<path id="Vector" d="M21.7959 20.2041L17.3437 15.75C18.6787 14.0104 19.3019 11.8282 19.087 9.64606C18.8722 7.46389 17.8353 5.44515 16.1867 3.99936C14.5382 2.55356 12.4014 1.78898 10.2098 1.8607C8.01829 1.93243 5.93607 2.83509 4.38558 4.38558C2.83509 5.93607 1.93243 8.01829 1.8607 10.2098C1.78898 12.4014 2.55356 14.5382 3.99936 16.1867C5.44515 17.8353 7.46389 18.8722 9.64606 19.087C11.8282 19.3019 14.0104 18.6787 15.75 17.3437L20.2059 21.8006C20.3106 21.9053 20.4348 21.9883 20.5715 22.0449C20.7083 22.1015 20.8548 22.1307 21.0028 22.1307C21.1508 22.1307 21.2973 22.1015 21.4341 22.0449C21.5708 21.9883 21.695 21.9053 21.7997 21.8006C21.9043 21.696 21.9873 21.5717 22.044 21.435C22.1006 21.2983 22.1298 21.1517 22.1298 21.0037C22.1298 20.8557 22.1006 20.7092 22.044 20.5725C21.9873 20.4357 21.9043 20.3115 21.7997 20.2069L21.7959 20.2041ZM4.12499 10.5C4.12499 9.23914 4.49888 8.0066 5.19938 6.95823C5.89987 5.90987 6.89551 5.09277 8.06039 4.61026C9.22527 4.12775 10.5071 4.00151 11.7437 4.24749C12.9803 4.49347 14.1162 5.10063 15.0078 5.99219C15.8994 6.88375 16.5065 8.01966 16.7525 9.25629C16.9985 10.4929 16.8722 11.7747 16.3897 12.9396C15.9072 14.1045 15.0901 15.1001 14.0418 15.8006C12.9934 16.5011 11.7608 16.875 10.5 16.875C8.80977 16.8733 7.18927 16.201 5.99411 15.0059C4.79894 13.8107 4.12673 12.1902 4.12499 10.5Z" fill="white"/>
</g>
</svg>
