<svg width="32" height="32" viewBox="0 0 32 32" fill="none" xmlns="http://www.w3.org/2000/svg">
<g id="ri:double-quotes-l">
<path id="Vector" d="M6.11067 23.0947C4.73733 21.636 4 20 4 17.348C4 12.6813 7.276 8.49866 12.04 6.43066L13.2307 8.268C8.784 10.6733 7.91467 13.7947 7.568 15.7627C8.284 15.392 9.22133 15.2627 10.14 15.348C12.5453 15.5707 14.4413 17.5453 14.4413 20C14.4413 21.2377 13.9497 22.4247 13.0745 23.2998C12.1993 24.175 11.0123 24.6667 9.77467 24.6667C9.09021 24.6607 8.41378 24.5186 7.78475 24.2487C7.15572 23.9789 6.58665 23.5866 6.11067 23.0947ZM19.444 23.0947C18.0707 21.636 17.3333 20 17.3333 17.348C17.3333 12.6813 20.6093 8.49866 25.3733 6.43066L26.564 8.268C22.1173 10.6733 21.248 13.7947 20.9013 15.7627C21.6173 15.392 22.5547 15.2627 23.4733 15.348C25.8787 15.5707 27.7747 17.5453 27.7747 20C27.7747 21.2377 27.283 22.4247 26.4078 23.2998C25.5327 24.175 24.3457 24.6667 23.108 24.6667C22.4235 24.6607 21.7471 24.5186 21.1181 24.2487C20.4891 23.9789 19.92 23.5866 19.444 23.0947Z" fill="#27563A"/>
</g>
</svg>
